<?xml version="1.0" standalone="no"?>
<!DOCTYPE svg PUBLIC "-//W3C//DTD SVG 20010904//EN"
 "http://www.w3.org/TR/2001/REC-SVG-20010904/DTD/svg10.dtd">
<svg version="1.0" xmlns="http://www.w3.org/2000/svg"
 width="512.000000pt" height="512.000000pt" viewBox="0 0 512.000000 512.000000"
 preserveAspectRatio="xMidYMid meet">
<metadata>
Created by potrace 1.14, written by Peter Selinger 2001-2017
</metadata>
<g transform="translate(0.000000,512.000000) scale(0.100000,-0.100000)"
fill="#000000" stroke="none">
<path d="M2255 4783 c-736 -99 -1388 -573 -1715 -1248 -146 -302 -209 -569
-217 -920 -7 -310 23 -517 113 -785 44 -131 164 -377 241 -495 138 -210 340
-426 536 -572 56 -42 101 -80 99 -85 -1 -5 2 -7 7 -3 14 8 62 -25 54 -38 -3
-6 -1 -7 5 -3 10 6 166 -74 158 -81 -2 -2 -20 5 -41 17 -21 12 -39 19 -42 17
-7 -8 188 -103 307 -150 501 -197 1102 -198 1600 -1 116 45 286 129 296 146 4
6 -9 1 -30 -11 -20 -13 -39 -21 -42 -19 -8 9 94 58 108 53 8 -3 21 2 29 12 13
16 12 17 -4 4 -9 -8 -20 -11 -23 -8 -9 9 35 29 48 21 6 -4 8 -3 5 3 -4 6 4 18
18 27 32 21 41 20 24 -1 -13 -16 -12 -17 3 -5 10 8 16 17 15 22 -3 13 123 101
135 94 6 -4 8 -3 5 3 -3 5 25 35 62 67 97 80 244 235 329 344 248 322 406 713
452 1121 16 139 8 496 -15 616 -90 489 -295 885 -630 1220 -352 352 -805 576
-1293 639 -154 20 -445 19 -597 -1z m-247 -1252 c7 -4 129 -201 271 -437 198
-331 261 -429 277 -429 15 0 77 97 271 420 139 231 260 428 268 438 13 15 36
17 195 17 179 0 181 0 205 -25 18 -17 25 -35 25 -62 0 -21 13 -426 30 -900 20
-594 33 -868 41 -881 8 -13 9 -28 2 -48 l-10 -29 -205 -3 -205 -2 -6 52 c-4
29 -7 199 -7 378 0 179 -3 477 -7 662 l-6 338 -178 -298 c-98 -163 -188 -305
-200 -314 -19 -16 -45 -18 -213 -18 -148 0 -196 3 -212 14 -11 8 -101 150
-199 316 l-180 301 -6 -323 c-3 -178 -7 -494 -8 -703 -1 -209 -5 -386 -9 -393
-7 -9 -56 -12 -212 -10 l-203 3 -10 29 c-7 21 -6 35 3 50 9 14 20 241 41 850
16 457 29 862 29 899 0 59 3 71 25 92 24 25 26 25 202 25 98 0 184 -4 191 -9z
m-360 -3021 c3 0 3 -2 0 -5 -5 -6 -78 22 -78 30 0 3 16 -2 36 -10 20 -8 39
-15 42 -15z m1877 11 c-6 -5 -21 -12 -35 -15 l-25 -7 25 15 c28 17 50 21 35 7z
m-1755 -68 c3 -3 -6 -2 -19 2 -39 12 -91 35 -91 40 0 5 102 -34 110 -42z
m1685 38 c-13 -12 -200 -81 -217 -81 -7 1 28 16 77 34 50 19 101 38 115 44 32
14 36 14 25 3z m-1595 -68 c30 -11 31 -12 6 -8 -16 4 -43 13 -60 20 -23 11
-25 13 -6 8 14 -3 41 -12 60 -20z m97 -29 c-3 -3 -12 -4 -19 -1 -8 3 -5 6 6 6
11 1 17 -2 13 -5z m1230 0 c-3 -3 -12 -4 -19 -1 -8 3 -5 6 6 6 11 1 17 -2 13
-5z m-1160 -20 c-3 -3 -12 -4 -19 -1 -8 3 -5 6 6 6 11 1 17 -2 13 -5z m46 -11
c-7 -2 -19 -2 -25 0 -7 3 -2 5 12 5 14 0 19 -2 13 -5z m1000 0 c-7 -2 -19 -2
-25 0 -7 3 -2 5 12 5 14 0 19 -2 13 -5z m-950 -10 c-7 -2 -19 -2 -25 0 -7 3
-2 5 12 5 14 0 19 -2 13 -5z m900 0 c-7 -2 -19 -2 -25 0 -7 3 -2 5 12 5 14 0
19 -2 13 -5z m-850 -10 c-7 -2 -19 -2 -25 0 -7 3 -2 5 12 5 14 0 19 -2 13 -5z
m800 0 c-7 -2 -19 -2 -25 0 -7 3 -2 5 12 5 14 0 19 -2 13 -5z m-730 -10 c-7
-2 -21 -2 -30 0 -10 3 -4 5 12 5 17 0 24 -2 18 -5z m670 0 c-7 -2 -21 -2 -30
0 -10 3 -4 5 12 5 17 0 24 -2 18 -5z m-590 -10 c-7 -2 -21 -2 -30 0 -10 3 -4
5 12 5 17 0 24 -2 18 -5z m515 0 c-10 -2 -26 -2 -35 0 -10 3 -2 5 17 5 19 0
27 -2 18 -5z m-390 -10 c-15 -2 -42 -2 -60 0 -18 2 -6 4 27 4 33 0 48 -2 33
-4z m290 0 c-15 -2 -42 -2 -60 0 -18 2 -6 4 27 4 33 0 48 -2 33 -4z"/>
<path d="M1400 616 c0 -3 9 -10 20 -16 11 -6 20 -8 20 -6 0 3 -9 10 -20 16
-11 6 -20 8 -20 6z"/>
</g>
</svg>
