<!-- icon666.com - MILLIONS vector ICONS FREE --><svg version="1.1" id="Capa_1" xmlns="http://www.w3.org/2000/svg" xmlns:xlink="http://www.w3.org/1999/xlink" x="0px" y="0px" viewBox="0 0 459.746 459.746" style="enable-background:new 0 0 459.746 459.746;" xml:space="preserve"><g><path style="fill:#4479FA;" d="M207.709,74.223c-42.906,4.951-82.624,24.058-113.624,55.058 c-34.212,34.212-53.948,79.039-56.144,127.054c2.196,48.015,21.932,92.843,56.144,127.055 c36.341,36.341,84.66,56.356,136.055,56.356c51.395,0,99.713-20.014,136.055-56.356c30.086-30.086,48.971-68.383,54.585-109.836 c-0.612-1.358-1.437-2.626-2.47-3.742c-2.634-2.846-6.337-4.477-10.214-4.477h-55.999c-7.089,0-13.018,5.311-13.818,12.355 c-6.153,54.217-52.304,96.481-108.139,96.481c-60.012,0-108.836-48.824-108.836-108.836c0-3.016,0.137-5.999,0.379-8.954 c-0.247-2.984-0.379-6-0.379-9.046c0-52.325,37.118-96.139,86.405-106.506v18h0v14.595l87.121-67.712L207.709,38V74.223z"></path><path style="fill:#2C3D8E;" d="M207.709,20l98.701,76.712l-98.701,76.712v-32.595c-49.287,10.368-86.405,54.182-86.405,106.506 c0,60.012,48.824,108.836,108.836,108.836c55.836,0,101.986-42.264,108.139-96.481c0.799-7.044,6.728-12.355,13.817-12.355h55.999 c3.878,0,7.581,1.631,10.214,4.477s3.964,6.659,3.668,10.525c-3.504,45.741-23.001,88.27-55.784,121.052 c-36.341,36.341-84.66,56.356-136.055,56.356s-99.713-20.014-136.055-56.356s-56.356-84.66-56.356-136.055 c0-51.394,20.014-99.713,56.356-136.055c31-31,70.718-50.108,113.624-55.058V20 M207.706,0c-2.992,0-5.997,0.67-8.787,2.035 c-6.86,3.357-11.21,10.327-11.21,17.965v19.154c-17.319,3.492-34.068,9.126-49.985,16.824c-21.36,10.331-40.8,24.179-57.781,41.16 c-40.119,40.119-62.213,93.46-62.213,150.197c0,56.737,22.094,110.078,62.214,150.197c40.119,40.119,93.46,62.214,150.197,62.214 c56.737,0,110.078-22.094,150.197-62.214c17.971-17.97,32.404-38.644,42.898-61.448c10.471-22.752,16.757-47.05,18.685-72.219 c0.719-9.383-2.536-18.727-8.93-25.637c-6.406-6.923-15.48-10.893-24.894-10.893h-55.999c-17.259,0-31.742,12.94-33.69,30.099 c-5.095,44.887-43.041,78.737-88.267,78.737c-48.984,0-88.836-39.852-88.836-88.836c0-32.993,18.5-62.734,46.405-78.016v4.105 c0,7.637,4.35,14.608,11.21,17.965c2.789,1.365,5.796,2.035,8.787,2.035c4.365,0,8.698-1.428,12.276-4.209l98.701-76.712 c4.875-3.789,7.727-9.617,7.727-15.791s-2.852-12.002-7.727-15.791L219.982,4.209C216.404,1.428,212.071,0,207.706,0L207.706,0z"></path></g></svg>